# xmcd
#
# Track frame offsets: 
#        150
#        20824
#        34370
#        50893
#        69294
#        83524
#        97553
#        115486
#        133350
#        152125
#        174750
#        193077
#        206713
#        225648
#        243509
#        258202
#        283115
#        301301
#
# Disc length: 4247 seconds
#
# Revision: 1
# Processed by: cddbd v1.5.2PL0 Copyright (c) Steve Scherf et al.
# Submitted via: ExactAudioCopy v0.99pb3
#
DISCID=fb109512
DTITLE=Kevin J Anderson - Horizon Storms (Disk-05)
DYEAR=2004
DGENRE=Audio Book
TTITLE0=Disk05-Track01
TTITLE1=Disk05-Track02
TTITLE2=Disk05-Track03
TTITLE3=Disk05-Track04
TTITLE4=Disk05-Track05
TTITLE5=Disk05-Track06
TTITLE6=Disk05-Track07
TTITLE7=Disk05-Track08
TTITLE8=Disk05-Track09
TTITLE9=Disk05-Track10
TTITLE10=Disk05-Track11
TTITLE11=Disk05-Track12
TTITLE12=Disk05-Track13
TTITLE13=Disk05-Track14
TTITLE14=Disk05-Track15
TTITLE15=Disk05-Track16
TTITLE16=Disk05-Track17
TTITLE17=Disk05-Track18
EXTD=
EXTT0=
EXTT1=
EXTT2=
EXTT3=
EXTT4=
EXTT5=
EXTT6=
EXTT7=
EXTT8=
EXTT9=
EXTT10=
EXTT11=
EXTT12=
EXTT13=
EXTT14=
EXTT15=
EXTT16=
EXTT17=
PLAYORDER=
